<?xml version="1.0" encoding="UTF-8"?>
<svg width="80px" height="150px" viewBox="0 0 80 150" version="1.1" xmlns="http://www.w3.org/2000/svg" xmlns:xlink="http://www.w3.org/1999/xlink">
    <!-- Generator: Sketch 48.2 (47327) - http://www.bohemiancoding.com/sketch -->
    <title>logo</title>
    <desc>Created with Sketch.</desc>
    <defs></defs>
    <g id="Desktop-HD-Copy" stroke="none" stroke-width="1" fill="none" fill-rule="evenodd" transform="translate(-945.000000, -330.000000)">
        <g id="logo" transform="translate(945.000000, 330.000000)" fill="#333333">
            <g id="elevator">
                <path d="M65.7982765,4.66490437 L13.5050978,4.66490437 L5.21193445,79.3033743 L74.0914398,79.3033743 L65.7982765,4.66490437 Z M9.07176308,2.32241095 C9.21427776,1.0397788 10.3696355,0 11.6607089,0 L67.6426654,0 C68.929986,0 70.089,1.03890978 70.2316112,2.32241095 L79.3033743,83.9682787 L0,83.9682787 L9.07176308,2.32241095 Z" id="Rectangle" fill-rule="nonzero"></path>
                <path d="M11.3609076,83.9682787 L67.9424667,83.9682787 C69.1691804,83.9682787 70.2723067,84.7151315 70.7278967,85.8541066 L79.3033743,107.2928 L0,107.2928 L8.57547755,85.8541066 C9.03106761,84.7151315 10.1341939,83.9682787 11.3609076,83.9682787 Z" id="Rectangle-Copy" transform="translate(39.651687, 95.630540) scale(1, -1) translate(-39.651687, -95.630540) "></path>
                <rect id="Rectangle-2" x="22.8580314" y="13.9947131" width="34.9867828" height="4.66490437"></rect>
                <polyline id="Rectangle-3" points="52.2469289 13.9947131 57.8448142 13.9947131 62.5097186 65.3086612"></polyline>
                <polyline id="Rectangle-3-Copy" transform="translate(22.858031, 39.651687) scale(-1, 1) translate(-22.858031, -39.651687) " points="17.7266366 13.9947131 23.3245218 13.9947131 27.9894262 65.3086612"></polyline>
                <polygon id="Line-Copy" fill-rule="nonzero" points="39.6316399 74.7407285 46.0047219 35.7004763 39.218163 39.4607995 43.4838438 15.0843561 38.8753684 15.2939513 34.0208356 46.5665971 41.6954803 42.094093"></polygon>
            </g>
            <path d="M15.2890362,132.932981 C15.2900944,132.933954 15.2906235,132.933954 15.2906235,132.932981 L15.2890362,132.932981 Z M15.2890362,132.932981 L12.2173845,132.932981 L9.04338361,127.407868 L9.04338361,132.949775 L6.2388431,132.949775 L6.2388431,121.043073 C6.77624277,120.975898 7.26885175,120.922718 7.71668481,120.883533 C8.16451787,120.844347 8.64033335,120.824755 9.14414555,120.824755 C9.759916,120.824755 10.3728783,120.883532 10.9830508,121.001088 C11.5932234,121.118645 12.1390117,121.322965 12.6204323,121.614057 C13.1018528,121.905148 13.490902,122.296996 13.7875914,122.789613 C14.0842808,123.282229 14.2326232,123.909186 14.2326232,124.670502 C14.2326232,125.107139 14.173846,125.498988 14.0562898,125.846058 C13.9387337,126.193129 13.7931901,126.49821 13.6196548,126.761312 C13.4461195,127.024414 13.2529944,127.253925 13.0402737,127.449852 C12.827553,127.645779 12.6204333,127.810915 12.4189084,127.945265 L12.3349401,127.995646 L12.5616545,128.365107 C12.7127981,128.611415 12.8975265,128.919295 13.1158451,129.288758 C13.3341637,129.65822 13.5720715,130.055666 13.8295755,130.481107 C14.0870795,130.906549 14.3249872,131.301196 14.5433059,131.66506 C14.7616245,132.028924 14.940755,132.334006 15.0807028,132.580314 C15.2084811,132.805204 15.2779251,132.922759 15.2890362,132.932981 Z M9.04338361,127.307106 L9.63116156,127.038408 C9.77670731,126.971233 9.95024001,126.887265 10.1517649,126.786503 C10.3532898,126.68574 10.5492138,126.554191 10.7395428,126.391852 C10.9298719,126.229512 11.0922089,126.036387 11.2265589,125.812471 C11.3609088,125.588554 11.4280827,125.314261 11.4280827,124.989582 C11.4280827,124.642511 11.3777023,124.354223 11.2769398,124.124708 C11.1761774,123.895194 11.0362317,123.710466 10.8570984,123.570518 C10.6779652,123.43057 10.4680466,123.329809 10.2273363,123.268232 C9.98662607,123.206655 9.72632701,123.175867 9.44643135,123.175867 L9.25330431,123.175867 C9.18053144,123.175867 9.11055857,123.181465 9.04338361,123.192661 L9.04338361,127.307106 Z M21.1180221,133.134505 C20.1999643,133.134505 19.4190671,132.977766 18.7753071,132.664282 C18.1315471,132.350799 17.6053511,131.919766 17.1967035,131.371171 C16.7880558,130.822575 16.4885719,130.170428 16.2982429,129.41471 C16.1079138,128.658992 16.0127507,127.833312 16.0127507,126.937646 C16.0127507,126.04198 16.1079138,125.2163 16.2982429,124.460582 C16.4885719,123.704863 16.7880558,123.055515 17.1967035,122.512517 C17.6053511,121.96952 18.1315471,121.546884 18.7753071,121.244596 C19.4190671,120.942309 20.1999643,120.791168 21.1180221,120.791168 C22.0360799,120.791168 22.816977,120.942309 23.4607371,121.244596 C24.1044971,121.546884 24.630693,121.96952 25.0393407,122.512517 C25.4479884,123.055515 25.7446733,123.704863 25.9294044,124.460582 C26.1141356,125.2163 26.2064998,126.04198 26.2064998,126.937646 C26.2064998,127.833312 26.1141356,128.658992 25.9294044,129.41471 C25.7446733,130.170428 25.4479884,130.822575 25.0393407,131.371171 C24.630693,131.919766 24.1044971,132.350799 23.4607371,132.664282 C22.816977,132.977766 22.0360799,133.134505 21.1180221,133.134505 Z M21.1180221,130.783393 C21.8905341,130.783393 22.4475181,130.464317 22.7889908,129.826155 C23.1304635,129.187992 23.3011973,128.225166 23.3011973,126.937646 C23.3011973,125.650126 23.1360614,124.704093 22.8057845,124.099518 C22.4755076,123.494943 21.9185236,123.192661 21.1348157,123.192661 C20.3399121,123.192661 19.7717324,123.494943 19.4302597,124.099518 C19.088787,124.704093 18.9180532,125.650126 18.9180532,126.937646 C18.9180532,128.225166 19.088787,129.187992 19.4302597,129.826155 C19.7717324,130.464317 20.3343142,130.783393 21.1180221,130.783393 Z M36.0139947,132.664282 C35.54377,132.854611 35.0931447,132.980563 34.6621054,133.04214 C34.2310661,133.103717 33.7524517,133.134505 33.2262479,133.134505 C32.2746026,133.134505 31.4405261,132.983363 30.7239932,132.681076 C30.0074603,132.378789 29.4112914,131.956153 28.9354688,131.413155 C28.4596462,130.870157 28.1013851,130.223608 27.8606749,129.473488 C27.6199646,128.723367 27.4996113,127.900487 27.4996113,127.00482 C27.4996113,126.109154 27.6227635,125.280676 27.8690717,124.519359 C28.1153799,123.758043 28.4764399,123.103097 28.9522625,122.554502 C29.4280851,122.005906 30.0186561,121.577672 30.7239932,121.269787 C31.4293302,120.961902 32.2354176,120.807961 33.1422796,120.807961 C33.6684834,120.807961 34.1442989,120.858342 34.5697403,120.959104 C34.9951817,121.059867 35.4094211,121.199813 35.8124708,121.378946 L35.123931,123.612502 C34.9000144,123.51174 34.650911,123.422174 34.3766133,123.343803 C34.1023155,123.265433 33.7748425,123.226248 33.3941844,123.226248 C31.4013273,123.226248 30.4049137,124.485759 30.4049137,127.00482 C30.4049137,128.269949 30.6624138,129.204786 31.1774219,129.809361 C31.6924299,130.413936 32.4873216,130.716218 33.562121,130.716218 C33.9203874,130.716218 34.2366648,130.691028 34.5109625,130.640647 C34.7852603,130.590266 35.056755,130.514695 35.3254548,130.413933 L36.0139947,132.664282 Z M40.5314881,126.853677 L43.6886954,120.959104 L46.7283471,120.959104 L43.5543461,126.736122 L47.1146012,132.949775 L44.0581558,132.949775 L40.5314881,126.853677 Z M37.7605349,123.041518 L36.4842171,123.041518 L37.5758047,120.942311 L40.4811071,120.942311 L40.4811071,132.966568 L37.7605349,132.966568 L37.7605349,123.041518 Z M48.1558078,120.942311 L50.8931737,120.942311 L50.8931737,132.949775 L48.1558078,132.949775 L48.1558078,120.942311 Z M53.563365,123.041518 L51.9679677,123.041518 L53.0595553,120.942311 L55.8137148,120.942311 L59.7938112,127.525424 L59.8945732,127.810916 L59.8945732,120.942311 L62.5143835,120.942311 L62.5143835,132.949775 L60.2808272,132.949775 L56.2503499,126.316281 L56.1663816,126.064376 L56.1663816,132.949775 L53.563365,132.949775 L53.563365,123.041518 Z M71.2470844,128.650599 L69.4837506,128.650599 L70.5921319,126.501011 L73.8501011,126.501011 L73.8501011,132.580314 C73.2007431,132.804231 72.5765852,132.952573 71.9776085,133.025346 C71.3786317,133.098119 70.8552347,133.134505 70.4074016,133.134505 C69.4221689,133.134505 68.565701,132.983363 67.8379723,132.681076 C67.1102436,132.378789 66.505678,131.958952 66.0242575,131.421552 C65.542837,130.884152 65.1845759,130.240402 64.9494635,129.490281 C64.7143512,128.740161 64.5967968,127.91728 64.5967968,127.021614 C64.5967968,126.125948 64.719949,125.297469 64.9662572,124.536153 C65.2125654,123.774837 65.5736254,123.117092 66.049448,122.562898 C66.5252706,122.008705 67.1158416,121.577672 67.8211787,121.269787 C68.5265157,120.961902 69.3326031,120.807961 70.2394651,120.807961 C70.7656689,120.807961 71.2722725,120.847146 71.7592909,120.925517 C72.2463094,121.003888 72.7920977,121.166225 73.3966724,121.412533 L72.2547038,123.51174 C72.0419831,123.422173 71.7844829,123.352201 71.4821956,123.301819 C71.1799083,123.251438 70.8552342,123.226248 70.5081636,123.226248 C69.511735,123.226248 68.758827,123.539726 68.2494169,124.166693 C67.7400068,124.793659 67.4853056,125.74529 67.4853056,127.021614 C67.4853056,128.297938 67.7372079,129.232776 68.2410201,129.826155 C68.7448323,130.419533 69.506137,130.716218 70.5249572,130.716218 C70.7936571,130.716218 71.0343637,130.693827 71.2470844,130.649044 L71.2470844,128.650599 Z M1.28471466,137.269476 L8.35484373,137.269476 C8.24288546,137.694917 8.13092888,138.097961 8.01897061,138.478619 C7.90701235,138.859277 7.79505576,139.251125 7.6830975,139.654175 L3.98849324,139.654175 C3.98849324,139.698958 3.99409107,139.763333 4.00528689,139.847302 C4.01648272,139.931271 4.02208055,139.995646 4.02208055,140.040429 L4.02208055,141.803763 L7.414399,141.803763 L7.414399,144.205256 L4.02208055,144.205256 L4.02208055,146.505987 L3.98849324,146.892241 L8.42201835,146.892241 L8.42201835,149.27694 L1.28471466,149.27694 L1.28471466,137.269476 Z M10.1685585,137.269476 L12.8387498,137.269476 L12.8387498,146.858653 L14.7700202,146.858653 L15.1898616,146.909034 L15.1898616,145.767066 L17.4570051,144.709065 L17.4570051,149.27694 L10.1685585,149.27694 L10.1685585,137.269476 Z M19.1363707,137.269476 L26.2064998,137.269476 C26.0945415,137.694917 25.9825849,138.097961 25.8706267,138.478619 C25.7586684,138.859277 25.6467118,139.251125 25.5347535,139.654175 L21.8401493,139.654175 C21.8401493,139.698958 21.8457471,139.763333 21.8569429,139.847302 C21.8681388,139.931271 21.8737366,139.995646 21.8737366,140.040429 L21.8737366,141.803763 L25.266055,141.803763 L25.266055,144.205256 L21.8737366,144.205256 L21.8737366,146.505987 L21.8401493,146.892241 L26.2736744,146.892241 L26.2736744,149.27694 L19.1363707,149.27694 L19.1363707,137.269476 Z M26.8950397,137.269476 L29.8339294,137.269476 L32.1682476,145.498367 L32.2690095,145.96859 L32.3025968,145.733478 C32.3025968,145.677499 32.3137925,145.627119 32.3361841,145.582336 C32.3473799,145.559944 32.3529778,145.537553 32.3529778,145.515161 L34.7208832,137.269476 L37.559011,137.269476 L33.6796766,149.27694 L30.7407868,149.27694 L26.8950397,137.269476 Z M40.9849168,139.368683 L39.7925673,139.368683 L40.8841549,137.28627 L44.5787591,137.28627 L48.340538,149.27694 L45.4520292,149.27694 L44.780283,146.875447 L44.1253304,146.925828 L41.7910123,146.925828 L41.220028,146.875447 L40.5314881,149.27694 L37.8277095,149.27694 L40.9849168,139.368683 Z M44.1253304,144.59151 L43.0169492,140.59462 L41.8413933,144.59151 L44.1253304,144.59151 Z M51.7832374,139.654175 L48.9115223,139.654175 L48.9115223,137.269476 L57.560255,137.269476 L57.1740009,138.445032 L56.7877469,139.654175 L54.537397,139.654175 L54.587778,140.124397 L54.587778,149.27694 L51.7832374,149.27694 L51.7832374,139.654175 Z M63.5555901,149.46167 C62.6375323,149.46167 61.8566352,149.304931 61.2128751,148.991448 C60.5691151,148.677965 60.0429192,148.246932 59.6342715,147.698336 C59.2256238,147.149741 58.92614,146.497594 58.7358109,145.741875 C58.5454819,144.986157 58.4503188,144.160477 58.4503188,143.264811 C58.4503188,142.369145 58.5454819,141.543465 58.7358109,140.787747 C58.92614,140.032029 59.2256238,139.38268 59.6342715,138.839683 C60.0429192,138.296685 60.5691151,137.874049 61.2128751,137.571762 C61.8566352,137.269474 62.6375323,137.118333 63.5555901,137.118333 C64.4736479,137.118333 65.2545451,137.269474 65.8983051,137.571762 C66.5420651,137.874049 67.0682611,138.296685 67.4769087,138.839683 C67.8855564,139.38268 68.1822413,140.032029 68.3669725,140.787747 C68.5517036,141.543465 68.6440678,142.369145 68.6440678,143.264811 C68.6440678,144.160477 68.5517036,144.986157 68.3669725,145.741875 C68.1822413,146.497594 67.8855564,147.149741 67.4769087,147.698336 C67.0682611,148.246932 66.5420651,148.677965 65.8983051,148.991448 C65.2545451,149.304931 64.4736479,149.46167 63.5555901,149.46167 Z M63.5555901,147.110558 C64.3281021,147.110558 64.8850861,146.791482 65.2265589,146.15332 C65.5680316,145.515158 65.7387654,144.552331 65.7387654,143.264811 C65.7387654,141.977291 65.5736294,141.031258 65.2433525,140.426683 C64.9130756,139.822109 64.3560916,139.519826 63.5723838,139.519826 C62.7774801,139.519826 62.2093004,139.822109 61.8678277,140.426683 C61.526355,141.031258 61.3556212,141.977291 61.3556212,143.264811 C61.3556212,144.552331 61.526355,145.515158 61.8678277,146.15332 C62.2093004,146.791482 62.7718823,147.110558 63.5555901,147.110558 Z M79.4911821,149.260146 C79.4922403,149.26112 79.4927694,149.26112 79.4927694,149.260146 L79.4911821,149.260146 Z M79.4911821,149.260146 L76.4195304,149.260146 L73.2455295,143.735033 L73.2455295,149.27694 L70.440989,149.27694 L70.440989,137.370238 C70.9783886,137.303063 71.4709976,137.249884 71.9188307,137.210698 C72.3666637,137.171513 72.8424792,137.15192 73.3462914,137.15192 C73.9620619,137.15192 74.5750242,137.210698 75.1851967,137.328254 C75.7953692,137.44581 76.3411576,137.650131 76.8225781,137.941222 C77.3039987,138.232314 77.6930478,138.624162 77.9897372,139.116778 C78.2864266,139.609394 78.4347691,140.236351 78.4347691,140.997668 C78.4347691,141.434305 78.3759919,141.826153 78.2584357,142.173223 C78.1408795,142.520294 77.995336,142.825376 77.8218007,143.088478 C77.6482653,143.35158 77.4551402,143.581091 77.2424195,143.777018 C77.0296988,143.972945 76.8225791,144.13808 76.6210543,144.27243 L76.537086,144.322811 L76.7638003,144.692272 C76.914944,144.93858 77.0996724,145.246461 77.317991,145.615923 C77.5363096,145.985385 77.7742173,146.382831 78.0317213,146.808272 C78.2892254,147.233714 78.5271331,147.628361 78.7454517,147.992225 C78.9637703,148.35609 79.1429009,148.661171 79.2828487,148.907479 C79.410627,149.132369 79.4800709,149.249924 79.4911821,149.260146 Z M73.2455295,143.634271 L73.8333074,143.365573 C73.9788532,143.298398 74.1523859,143.214431 74.3539107,143.113668 C74.5554356,143.012906 74.7513596,142.881357 74.9416887,142.719017 C75.1320177,142.556678 75.2943548,142.363553 75.4287047,142.139636 C75.5630546,141.91572 75.6302286,141.641426 75.6302286,141.316747 C75.6302286,140.969676 75.5798481,140.681388 75.4790857,140.451874 C75.3783232,140.222359 75.2383775,140.037631 75.0592443,139.897683 C74.8801111,139.757735 74.6701925,139.656974 74.4294822,139.595397 C74.1887719,139.53382 73.9284729,139.503032 73.6485772,139.503032 L73.4554502,139.503032 C73.3826773,139.503032 73.3127044,139.50863 73.2455295,139.519826 L73.2455295,143.634271 Z" id="ROCKING-ELEVATOR-Copy-3"></path>
        </g>
    </g>
</svg>