<?xml version="1.0" standalone="no"?>
<!DOCTYPE svg PUBLIC "-//W3C//DTD SVG 20010904//EN"
 "http://www.w3.org/TR/2001/REC-SVG-20010904/DTD/svg10.dtd">
<svg version="1.0" xmlns="http://www.w3.org/2000/svg"
 width="700.000000pt" height="700.000000pt" viewBox="0 0 700.000000 700.000000"
 preserveAspectRatio="xMidYMid meet">
<metadata>
Created by potrace 1.11, written by Peter Selinger 2001-2013
</metadata>
<g transform="translate(0.000000,700.000000) scale(0.100000,-0.100000)"
fill="#000000" stroke="none">
<path d="M1309 6967 c-1 -18 -2 -43 -4 -57 -1 -14 -6 -70 -10 -125 -3 -55 -8
-111 -10 -125 -2 -14 -6 -59 -10 -100 -7 -87 -12 -158 -20 -250 -6 -63 -7 -83
-19 -235 -4 -38 -8 -92 -11 -120 -2 -27 -7 -79 -10 -115 -2 -36 -7 -96 -11
-135 -3 -38 -7 -92 -9 -120 -7 -84 -16 -188 -20 -235 -4 -42 -7 -79 -20 -247
-3 -38 -7 -86 -10 -108 -2 -22 -7 -83 -10 -135 -4 -52 -8 -105 -10 -116 -2
-12 -6 -61 -10 -110 -3 -49 -8 -107 -10 -129 -2 -22 -7 -69 -9 -105 -6 -75
-16 -185 -21 -250 -3 -25 -7 -76 -10 -115 -7 -96 -16 -203 -20 -245 -2 -19 -7
-80 -11 -135 -3 -55 -8 -107 -9 -116 -2 -9 -6 -56 -10 -105 -4 -49 -8 -105
-10 -124 -2 -19 -7 -73 -10 -120 -3 -47 -8 -101 -10 -120 -2 -19 -7 -73 -10
-120 -3 -47 -8 -101 -10 -120 -2 -19 -7 -73 -10 -120 -4 -47 -8 -101 -10 -120
-2 -19 -7 -78 -10 -130 -3 -52 -8 -106 -10 -120 -2 -14 -6 -63 -10 -110 -3
-47 -8 -105 -10 -130 -9 -90 -17 -177 -24 -263 -6 -84 -6 -87 14 -87 19 0 31
-32 114 -297 51 -164 106 -341 123 -393 16 -52 38 -123 49 -157 10 -35 28 -91
38 -125 11 -35 56 -180 101 -323 106 -337 140 -447 140 -451 0 -2 923 -3 2052
-2 l2052 3 68 220 c38 121 85 272 104 335 19 63 51 165 71 225 19 61 36 115
37 120 2 6 10 33 18 60 33 104 171 545 207 660 31 100 40 121 58 123 20 3 21
8 18 68 -2 35 -6 77 -9 92 -3 15 -8 65 -12 112 -3 47 -7 99 -9 115 -1 17 -6
66 -9 110 -4 44 -9 98 -11 120 -2 22 -7 76 -10 119 -4 43 -8 86 -10 95 -1 9
-6 61 -10 116 -3 55 -8 111 -10 125 -2 14 -7 65 -10 114 -4 49 -8 96 -10 105
-1 9 -6 61 -10 116 -4 55 -8 114 -10 130 -2 17 -7 64 -10 105 -3 41 -7 91 -10
110 -2 19 -7 73 -10 119 -4 47 -8 92 -10 102 -2 9 -6 59 -10 110 -4 52 -8 110
-10 129 -2 19 -6 69 -10 110 -3 41 -7 89 -10 105 -2 17 -6 69 -10 117 -3 47
-7 95 -9 105 -2 10 -7 63 -11 118 -4 55 -9 114 -10 130 -2 17 -6 68 -9 115 -4
47 -9 92 -11 100 -2 8 -7 59 -10 114 -4 54 -8 111 -10 126 -2 14 -6 62 -10
106 -3 43 -8 95 -10 114 -2 19 -6 76 -10 125 -3 50 -8 97 -10 105 -2 8 -7 59
-10 113 -3 53 -8 105 -9 115 -2 9 -7 58 -10 107 -4 50 -9 101 -11 115 -2 14
-6 64 -10 112 -3 49 -8 96 -9 105 -2 10 -7 63 -11 118 -3 55 -8 111 -10 125
-2 14 -6 65 -10 114 -4 50 -8 97 -10 105 -1 9 -6 61 -10 116 -4 55 -9 111 -10
125 -2 14 -4 37 -4 52 -1 26 -2 26 -38 15 -46 -14 -356 -14 -528 -1 -145 11
-3489 12 -3560 1 -112 -17 -161 -18 -207 -4 l-48 15 -1 -31z m3935 -408 c5 -5
13 -69 21 -156 3 -35 7 -91 10 -125 3 -35 8 -81 10 -103 12 -120 16 -156 20
-220 3 -38 8 -92 11 -120 2 -27 7 -75 9 -105 3 -30 7 -77 10 -105 9 -94 15
-160 19 -215 3 -30 7 -82 11 -115 3 -33 7 -84 10 -112 3 -29 7 -77 10 -105 5
-54 10 -116 20 -223 3 -33 8 -84 10 -112 3 -29 7 -78 10 -108 3 -30 7 -79 10
-107 2 -29 7 -80 10 -113 3 -33 8 -85 11 -116 3 -31 7 -78 9 -105 6 -69 15
-172 20 -214 1 -19 6 -71 10 -115 3 -44 8 -93 10 -110 2 -16 7 -61 9 -100 3
-38 8 -95 11 -125 5 -55 11 -114 20 -215 3 -30 7 -79 10 -107 3 -29 7 -82 10
-118 3 -36 7 -83 10 -105 2 -22 7 -74 10 -115 4 -41 8 -88 10 -105 2 -16 7
-66 10 -110 3 -44 8 -93 10 -110 2 -16 6 -66 10 -110 3 -44 8 -93 10 -110 2
-16 7 -68 10 -115 4 -47 8 -95 10 -108 2 -12 7 -64 11 -115 3 -50 8 -95 11
-99 2 -5 -977 -8 -2177 -8 -2073 0 -2181 1 -2176 18 2 9 7 53 11 97 3 44 8 94
10 110 2 17 7 66 11 110 12 157 17 206 29 335 12 126 15 159 20 210 13 152 16
178 20 220 2 25 7 77 10 115 3 39 8 88 10 110 2 22 7 72 10 110 3 39 8 93 10
120 13 126 15 155 21 225 3 41 7 86 9 100 2 14 6 59 10 100 3 41 8 98 11 125
5 49 7 77 19 220 3 39 8 86 10 105 2 19 7 67 10 105 3 39 8 90 10 115 2 25 7
72 10 105 3 33 7 80 10 105 2 25 7 77 10 115 3 39 7 86 10 105 2 19 7 71 10
115 3 44 8 98 10 120 6 50 14 142 20 220 3 33 7 78 9 100 3 22 7 67 10 100 3
33 8 89 12 125 8 85 11 119 18 215 4 44 8 96 11 115 4 33 13 128 20 215 7 95
17 196 20 212 2 10 4 28 4 40 1 15 8 23 24 25 33 5 3467 2 3471 -3z"/>
<path d="M2244 6139 c-5 -9 -8 -35 -18 -159 -4 -41 -9 -96 -11 -122 -11 -112
-14 -144 -30 -318 -2 -25 -7 -79 -10 -120 -3 -41 -8 -91 -10 -110 -3 -19 -7
-64 -10 -100 -3 -36 -8 -85 -10 -110 -3 -25 -7 -72 -10 -105 -2 -33 -6 -82 -9
-110 -3 -27 -8 -79 -11 -115 -3 -36 -7 -85 -10 -110 -11 -107 -14 -140 -20
-225 -4 -49 -8 -101 -10 -115 -2 -14 -6 -59 -10 -100 -3 -41 -8 -95 -10 -120
-2 -25 -7 -72 -10 -105 -3 -33 -7 -78 -9 -100 -11 -114 -18 -194 -21 -226 -2
-19 -7 -75 -10 -123 -4 -49 -8 -96 -10 -105 -3 -17 -16 -162 -20 -221 -1 -19
-5 -63 -9 -97 -4 -35 -6 -63 -3 -63 2 0 12 33 22 73 9 39 51 207 92 372 41
165 77 311 79 325 3 14 12 48 20 75 8 28 14 50 13 50 -2 0 236 972 251 1025
10 37 170 686 174 707 1 7 6 16 10 20 4 4 107 8 228 9 l220 0 -6 -85 c-4 -48
-9 -106 -11 -131 -2 -25 -7 -79 -10 -120 -3 -41 -7 -102 -10 -135 -6 -73 -14
-168 -20 -255 -3 -36 -7 -92 -10 -125 -3 -33 -7 -89 -10 -125 -7 -80 -13 -162
-20 -260 -3 -41 -8 -100 -10 -130 -17 -195 -17 -193 -3 -187 14 5 306 85 411
112 l48 12 -5 -36 c-3 -20 -8 -83 -11 -141 -3 -58 -8 -127 -10 -155 -3 -27 -7
-93 -10 -145 -3 -52 -8 -115 -10 -140 -2 -25 -7 -92 -10 -150 -4 -58 -8 -121
-10 -140 -2 -19 -6 -84 -10 -145 -3 -60 -8 -130 -10 -154 -2 -24 -6 -89 -10
-145 -3 -55 -8 -120 -10 -143 -2 -23 -6 -91 -10 -150 -4 -59 -8 -123 -10 -140
-4 -51 8 -39 36 34 24 62 434 1069 464 1138 7 17 31 75 53 130 23 55 125 304
227 554 102 250 183 456 181 458 -2 3 -82 -11 -178 -31 -251 -52 -231 -50
-223 -18 4 15 9 38 11 52 3 14 22 117 44 230 22 113 41 216 44 230 3 14 10 50
16 80 6 30 13 64 15 75 3 18 6 38 20 105 3 14 10 52 15 85 6 33 13 67 16 76 3
13 33 15 213 15 l210 0 36 -145 c39 -155 43 -172 51 -210 3 -14 7 -28 9 -31 2
-4 7 -22 10 -41 3 -19 11 -52 17 -74 5 -22 11 -44 13 -50 1 -5 5 -21 8 -35 21
-79 110 -441 117 -475 5 -22 41 -168 80 -325 40 -157 73 -292 75 -300 2 -8 38
-154 80 -325 42 -170 78 -317 80 -325 17 -76 78 -316 82 -320 4 -4 1 30 -12
170 -2 19 -6 71 -10 115 -3 44 -8 91 -10 105 -2 14 -7 63 -10 110 -3 47 -7 96
-10 110 -2 14 -7 61 -10 105 -7 79 -8 101 -20 220 -7 66 -11 113 -20 225 -4
41 -8 91 -10 110 -6 62 -17 184 -20 220 -16 193 -20 237 -30 320 -2 19 -7 67
-10 105 -5 70 -12 152 -20 235 -2 25 -7 74 -10 110 -3 36 -7 85 -10 110 -2 25
-7 77 -10 115 -7 82 -13 152 -20 215 -9 85 -14 145 -21 230 -3 47 -8 92 -9
100 -2 8 -4 25 -4 36 l-1 21 -1295 0 c-713 0 -1298 -4 -1301 -8z"/>
</g>
</svg>
